<svg xmlns="http://www.w3.org/2000/svg" viewBox="0 0 2400 1350" preserveAspectRatio="xMidYMid slice">
  <defs>
    <linearGradient id="base" x1="0" y1="0" x2="1" y2="1">
      <stop offset="0" stop-color="#f8fbff"/>
      <stop offset="0.45" stop-color="#eef7f6"/>
      <stop offset="1" stop-color="#fff5ee"/>
    </linearGradient>
    <linearGradient id="ribbonA" x1="0" y1="0" x2="1" y2="0">
      <stop offset="0" stop-color="#14b8a6" stop-opacity="0"/>
      <stop offset="0.34" stop-color="#14b8a6" stop-opacity="0.34"/>
      <stop offset="0.72" stop-color="#f97316" stop-opacity="0.22"/>
      <stop offset="1" stop-color="#f97316" stop-opacity="0"/>
    </linearGradient>
    <linearGradient id="ribbonB" x1="0" y1="1" x2="1" y2="0">
      <stop offset="0" stop-color="#2563eb" stop-opacity="0"/>
      <stop offset="0.42" stop-color="#2563eb" stop-opacity="0.22"/>
      <stop offset="1" stop-color="#f43f5e" stop-opacity="0"/>
    </linearGradient>
    <pattern id="grid" width="72" height="72" patternUnits="userSpaceOnUse">
      <path d="M72 0H0v72" fill="none" stroke="#0f172a" stroke-opacity="0.055" stroke-width="1"/>
      <path d="M18 0v72M36 0v72M54 0v72M0 18h72M0 36h72M0 54h72" fill="none" stroke="#0f172a" stroke-opacity="0.025" stroke-width="1"/>
    </pattern>
    <filter id="soft" x="-20%" y="-20%" width="140%" height="140%">
      <feGaussianBlur stdDeviation="22"/>
    </filter>
    <filter id="grain">
      <feTurbulence type="fractalNoise" baseFrequency="0.78" numOctaves="3" stitchTiles="stitch"/>
      <feColorMatrix type="saturate" values="0"/>
      <feComponentTransfer>
        <feFuncA type="table" tableValues="0 0.08"/>
      </feComponentTransfer>
    </filter>
  </defs>

  <rect width="2400" height="1350" fill="url(#base)"/>
  <rect width="2400" height="1350" fill="url(#grid)"/>

  <g filter="url(#soft)">
    <path d="M-120 390 C260 180 560 190 920 350 C1320 530 1630 500 2060 260 C2260 150 2420 120 2540 150 L2540 430 C2210 340 1950 440 1630 610 C1260 810 870 720 520 520 C280 385 60 420 -120 560Z" fill="url(#ribbonA)"/>
    <path d="M-180 1040 C190 810 570 820 940 990 C1270 1140 1640 1120 2040 920 C2240 820 2410 790 2580 850 L2580 1160 C2260 1080 1990 1200 1660 1290 C1210 1410 830 1280 520 1110 C270 970 40 1000 -180 1200Z" fill="url(#ribbonB)"/>
  </g>

  <path d="M0 902 C325 778 572 766 853 854 C1170 953 1435 904 1704 752 C1940 618 2177 578 2400 636" fill="none" stroke="#0f766e" stroke-opacity="0.18" stroke-width="3"/>
  <path d="M0 954 C310 840 590 850 870 928 C1178 1013 1448 988 1750 836 C1972 724 2200 690 2400 742" fill="none" stroke="#ea580c" stroke-opacity="0.14" stroke-width="3"/>
  <path d="M0 310 C295 220 610 245 910 370 C1262 516 1556 486 1864 318 C2050 216 2254 176 2400 216" fill="none" stroke="#2563eb" stroke-opacity="0.12" stroke-width="3"/>

  <g opacity="0.52" stroke-linecap="round">
    <path d="M176 1110h328" stroke="#14b8a6" stroke-opacity="0.34" stroke-width="2"/>
    <path d="M1506 252h420" stroke="#f97316" stroke-opacity="0.25" stroke-width="2"/>
    <path d="M1848 296h180" stroke="#0f172a" stroke-opacity="0.12" stroke-width="2"/>
    <path d="M330 328h250" stroke="#2563eb" stroke-opacity="0.18" stroke-width="2"/>
  </g>

  <g fill="#0f172a" opacity="0.2">
    <rect x="206" y="1088" width="10" height="10" rx="2"/>
    <rect x="446" y="1088" width="10" height="10" rx="2"/>
    <rect x="1608" y="230" width="10" height="10" rx="2"/>
    <rect x="1910" y="230" width="10" height="10" rx="2"/>
    <rect x="390" y="306" width="10" height="10" rx="2"/>
    <rect x="560" y="306" width="10" height="10" rx="2"/>
  </g>

  <rect width="2400" height="1350" fill="url(#grain)" opacity="0.42"/>
  <rect width="2400" height="1350" fill="#ffffff" opacity="0.18"/>
</svg>
